<mxfile host="Electron" modified="2024-05-22T14:17:46.730Z" agent="Mozilla/5.0 (X11; Linux x86_64) AppleWebKit/537.36 (KHTML, like Gecko) draw.io/24.2.5 Chrome/120.0.6099.109 Electron/28.1.0 Safari/537.36" etag="4bUFthuWG8sl9uSy23DA" version="24.2.5" type="device">
  <diagram id="C5RBs43oDa-KdzZeNtuy" name="Page-1">
    <mxGraphModel dx="2286" dy="1199" grid="1" gridSize="10" guides="1" tooltips="1" connect="1" arrows="1" fold="1" page="1" pageScale="1" pageWidth="827" pageHeight="1169" math="0" shadow="0">
      <root>
        <mxCell id="WIyWlLk6GJQsqaUBKTNV-0" />
        <mxCell id="WIyWlLk6GJQsqaUBKTNV-1" parent="WIyWlLk6GJQsqaUBKTNV-0" />
        <mxCell id="r2FiSrQX7Yn0EFOq5XZe-24" style="edgeStyle=orthogonalEdgeStyle;rounded=0;orthogonalLoop=1;jettySize=auto;html=1;entryX=0.5;entryY=0;entryDx=0;entryDy=0;" edge="1" parent="WIyWlLk6GJQsqaUBKTNV-1" source="r2FiSrQX7Yn0EFOq5XZe-0" target="r2FiSrQX7Yn0EFOq5XZe-16">
          <mxGeometry relative="1" as="geometry" />
        </mxCell>
        <mxCell id="r2FiSrQX7Yn0EFOq5XZe-25" style="edgeStyle=orthogonalEdgeStyle;rounded=0;orthogonalLoop=1;jettySize=auto;html=1;exitX=1;exitY=0.5;exitDx=0;exitDy=0;" edge="1" parent="WIyWlLk6GJQsqaUBKTNV-1" source="r2FiSrQX7Yn0EFOq5XZe-0" target="r2FiSrQX7Yn0EFOq5XZe-20">
          <mxGeometry relative="1" as="geometry" />
        </mxCell>
        <mxCell id="r2FiSrQX7Yn0EFOq5XZe-26" style="edgeStyle=orthogonalEdgeStyle;rounded=0;orthogonalLoop=1;jettySize=auto;html=1;exitX=0;exitY=0.5;exitDx=0;exitDy=0;entryX=0.5;entryY=0;entryDx=0;entryDy=0;" edge="1" parent="WIyWlLk6GJQsqaUBKTNV-1" source="r2FiSrQX7Yn0EFOq5XZe-0" target="r2FiSrQX7Yn0EFOq5XZe-11">
          <mxGeometry relative="1" as="geometry" />
        </mxCell>
        <mxCell id="r2FiSrQX7Yn0EFOq5XZe-27" style="edgeStyle=orthogonalEdgeStyle;rounded=0;orthogonalLoop=1;jettySize=auto;html=1;exitX=1;exitY=0.5;exitDx=0;exitDy=0;entryX=0.5;entryY=0;entryDx=0;entryDy=0;" edge="1" parent="WIyWlLk6GJQsqaUBKTNV-1" source="r2FiSrQX7Yn0EFOq5XZe-0" target="r2FiSrQX7Yn0EFOq5XZe-5">
          <mxGeometry relative="1" as="geometry">
            <mxPoint x="457" y="80" as="targetPoint" />
          </mxGeometry>
        </mxCell>
        <mxCell id="r2FiSrQX7Yn0EFOq5XZe-0" value="math" style="rounded=0;whiteSpace=wrap;html=1;" vertex="1" parent="WIyWlLk6GJQsqaUBKTNV-1">
          <mxGeometry x="257" width="50" height="30" as="geometry" />
        </mxCell>
        <object label="Color" fields="" id="r2FiSrQX7Yn0EFOq5XZe-5">
          <mxCell style="swimlane;fontStyle=0;childLayout=stackLayout;horizontal=1;startSize=30;horizontalStack=0;resizeParent=1;resizeParentMax=0;resizeLast=0;collapsible=1;marginBottom=0;whiteSpace=wrap;html=1;" vertex="1" parent="WIyWlLk6GJQsqaUBKTNV-1">
            <mxGeometry x="370" y="90" width="140" height="70" as="geometry" />
          </mxCell>
        </object>
        <mxCell id="r2FiSrQX7Yn0EFOq5XZe-36" value="cvt: 0..1 =&amp;gt; 0..255&lt;div&gt;fmt =&amp;gt; prints&lt;/div&gt;" style="text;strokeColor=none;fillColor=none;align=left;verticalAlign=middle;spacingLeft=4;spacingRight=4;overflow=hidden;points=[[0,0.5],[1,0.5]];portConstraint=eastwest;rotatable=0;whiteSpace=wrap;html=1;" vertex="1" parent="r2FiSrQX7Yn0EFOq5XZe-5">
          <mxGeometry y="30" width="140" height="40" as="geometry" />
        </mxCell>
        <mxCell id="r2FiSrQX7Yn0EFOq5XZe-11" value="utils" style="swimlane;whiteSpace=wrap;html=1;" vertex="1" parent="WIyWlLk6GJQsqaUBKTNV-1">
          <mxGeometry x="20" y="90" width="340" height="130" as="geometry">
            <mxRectangle x="5" y="130" width="60" height="30" as="alternateBounds" />
          </mxGeometry>
        </mxCell>
        <mxCell id="r2FiSrQX7Yn0EFOq5XZe-13" value="1. feq: compares float numbers.&lt;div&gt;2. veq: compares vectors.&lt;/div&gt;&lt;div&gt;3. meq: compares matrices.&amp;nbsp;&lt;/div&gt;&lt;div&gt;4. color, tuple, point, vector: creates appropriate structure&lt;/div&gt;&lt;div&gt;5. dot, cross: useful vector operations&amp;nbsp;&lt;/div&gt;&lt;div&gt;6. transform!: macro to create a set of transformations (TUnit)&lt;/div&gt;&lt;div&gt;&lt;br&gt;&lt;/div&gt;" style="text;html=1;align=center;verticalAlign=middle;resizable=0;points=[];autosize=1;strokeColor=none;fillColor=none;" vertex="1" parent="r2FiSrQX7Yn0EFOq5XZe-11">
          <mxGeometry x="-10" y="30" width="350" height="110" as="geometry" />
        </mxCell>
        <mxCell id="r2FiSrQX7Yn0EFOq5XZe-16" value="TUnit" style="swimlane;fontStyle=0;childLayout=stackLayout;horizontal=1;startSize=30;horizontalStack=0;resizeParent=1;resizeParentMax=0;resizeLast=0;collapsible=1;marginBottom=0;whiteSpace=wrap;html=1;" vertex="1" parent="WIyWlLk6GJQsqaUBKTNV-1">
          <mxGeometry x="517" y="90" width="140" height="180" as="geometry" />
        </mxCell>
        <mxCell id="r2FiSrQX7Yn0EFOq5XZe-17" value="Translate(f64, f64, f64)&lt;span style=&quot;white-space: pre;&quot;&gt;&#x9;&lt;/span&gt;" style="text;strokeColor=none;fillColor=none;align=left;verticalAlign=middle;spacingLeft=4;spacingRight=4;overflow=hidden;points=[[0,0.5],[1,0.5]];portConstraint=eastwest;rotatable=0;whiteSpace=wrap;html=1;" vertex="1" parent="r2FiSrQX7Yn0EFOq5XZe-16">
          <mxGeometry y="30" width="140" height="30" as="geometry" />
        </mxCell>
        <mxCell id="r2FiSrQX7Yn0EFOq5XZe-18" value="Scale(f64, f64, f64)" style="text;strokeColor=none;fillColor=none;align=left;verticalAlign=middle;spacingLeft=4;spacingRight=4;overflow=hidden;points=[[0,0.5],[1,0.5]];portConstraint=eastwest;rotatable=0;whiteSpace=wrap;html=1;" vertex="1" parent="r2FiSrQX7Yn0EFOq5XZe-16">
          <mxGeometry y="60" width="140" height="30" as="geometry" />
        </mxCell>
        <mxCell id="r2FiSrQX7Yn0EFOq5XZe-19" value="RotateX, Y, Z(f64)" style="text;strokeColor=none;fillColor=none;align=left;verticalAlign=middle;spacingLeft=4;spacingRight=4;overflow=hidden;points=[[0,0.5],[1,0.5]];portConstraint=eastwest;rotatable=0;whiteSpace=wrap;html=1;" vertex="1" parent="r2FiSrQX7Yn0EFOq5XZe-16">
          <mxGeometry y="90" width="140" height="30" as="geometry" />
        </mxCell>
        <mxCell id="r2FiSrQX7Yn0EFOq5XZe-37" value="Shear(f64..f64)" style="text;strokeColor=none;fillColor=none;align=left;verticalAlign=middle;spacingLeft=4;spacingRight=4;overflow=hidden;points=[[0,0.5],[1,0.5]];portConstraint=eastwest;rotatable=0;whiteSpace=wrap;html=1;" vertex="1" parent="r2FiSrQX7Yn0EFOq5XZe-16">
          <mxGeometry y="120" width="140" height="30" as="geometry" />
        </mxCell>
        <mxCell id="r2FiSrQX7Yn0EFOq5XZe-38" value="None" style="text;strokeColor=none;fillColor=none;align=left;verticalAlign=middle;spacingLeft=4;spacingRight=4;overflow=hidden;points=[[0,0.5],[1,0.5]];portConstraint=eastwest;rotatable=0;whiteSpace=wrap;html=1;" vertex="1" parent="r2FiSrQX7Yn0EFOq5XZe-16">
          <mxGeometry y="150" width="140" height="30" as="geometry" />
        </mxCell>
        <mxCell id="r2FiSrQX7Yn0EFOq5XZe-20" value="Transformation" style="swimlane;fontStyle=0;childLayout=stackLayout;horizontal=1;startSize=30;horizontalStack=0;resizeParent=1;resizeParentMax=0;resizeLast=0;collapsible=1;marginBottom=0;whiteSpace=wrap;html=1;" vertex="1" parent="WIyWlLk6GJQsqaUBKTNV-1">
          <mxGeometry x="687" y="90" width="140" height="120" as="geometry" />
        </mxCell>
        <mxCell id="r2FiSrQX7Yn0EFOq5XZe-21" value="set: Vec&amp;lt;TUnit&amp;gt;" style="text;strokeColor=none;fillColor=none;align=left;verticalAlign=middle;spacingLeft=4;spacingRight=4;overflow=hidden;points=[[0,0.5],[1,0.5]];portConstraint=eastwest;rotatable=0;whiteSpace=wrap;html=1;" vertex="1" parent="r2FiSrQX7Yn0EFOq5XZe-20">
          <mxGeometry y="30" width="140" height="30" as="geometry" />
        </mxCell>
        <mxCell id="r2FiSrQX7Yn0EFOq5XZe-22" value="&lt;span style=&quot;background-color: initial;&quot;&gt;matrix()&lt;/span&gt;" style="text;strokeColor=none;fillColor=none;align=left;verticalAlign=middle;spacingLeft=4;spacingRight=4;overflow=hidden;points=[[0,0.5],[1,0.5]];portConstraint=eastwest;rotatable=0;whiteSpace=wrap;html=1;" vertex="1" parent="r2FiSrQX7Yn0EFOq5XZe-20">
          <mxGeometry y="60" width="140" height="30" as="geometry" />
        </mxCell>
        <mxCell id="r2FiSrQX7Yn0EFOq5XZe-23" value="&lt;span style=&quot;background-color: initial;&quot;&gt;inverse()&lt;/span&gt;" style="text;strokeColor=none;fillColor=none;align=left;verticalAlign=middle;spacingLeft=4;spacingRight=4;overflow=hidden;points=[[0,0.5],[1,0.5]];portConstraint=eastwest;rotatable=0;whiteSpace=wrap;html=1;" vertex="1" parent="r2FiSrQX7Yn0EFOq5XZe-20">
          <mxGeometry y="90" width="140" height="30" as="geometry" />
        </mxCell>
        <mxCell id="r2FiSrQX7Yn0EFOq5XZe-46" style="edgeStyle=orthogonalEdgeStyle;rounded=0;orthogonalLoop=1;jettySize=auto;html=1;entryX=0.5;entryY=0;entryDx=0;entryDy=0;" edge="1" parent="WIyWlLk6GJQsqaUBKTNV-1" source="r2FiSrQX7Yn0EFOq5XZe-40" target="r2FiSrQX7Yn0EFOq5XZe-42">
          <mxGeometry relative="1" as="geometry" />
        </mxCell>
        <mxCell id="r2FiSrQX7Yn0EFOq5XZe-52" style="edgeStyle=orthogonalEdgeStyle;rounded=0;orthogonalLoop=1;jettySize=auto;html=1;exitX=1;exitY=0.5;exitDx=0;exitDy=0;entryX=0.5;entryY=0;entryDx=0;entryDy=0;" edge="1" parent="WIyWlLk6GJQsqaUBKTNV-1" source="r2FiSrQX7Yn0EFOq5XZe-40" target="r2FiSrQX7Yn0EFOq5XZe-47">
          <mxGeometry relative="1" as="geometry" />
        </mxCell>
        <mxCell id="r2FiSrQX7Yn0EFOq5XZe-66" style="edgeStyle=orthogonalEdgeStyle;rounded=0;orthogonalLoop=1;jettySize=auto;html=1;entryX=0.5;entryY=0;entryDx=0;entryDy=0;" edge="1" parent="WIyWlLk6GJQsqaUBKTNV-1" source="r2FiSrQX7Yn0EFOq5XZe-40" target="r2FiSrQX7Yn0EFOq5XZe-58">
          <mxGeometry relative="1" as="geometry">
            <mxPoint x="460" y="590" as="targetPoint" />
          </mxGeometry>
        </mxCell>
        <mxCell id="r2FiSrQX7Yn0EFOq5XZe-74" style="edgeStyle=orthogonalEdgeStyle;rounded=0;orthogonalLoop=1;jettySize=auto;html=1;entryX=1;entryY=0.5;entryDx=0;entryDy=0;" edge="1" parent="WIyWlLk6GJQsqaUBKTNV-1" source="r2FiSrQX7Yn0EFOq5XZe-40" target="r2FiSrQX7Yn0EFOq5XZe-41">
          <mxGeometry relative="1" as="geometry" />
        </mxCell>
        <mxCell id="r2FiSrQX7Yn0EFOq5XZe-40" value="render" style="rounded=0;whiteSpace=wrap;html=1;" vertex="1" parent="WIyWlLk6GJQsqaUBKTNV-1">
          <mxGeometry x="585" y="330" width="50" height="30" as="geometry" />
        </mxCell>
        <mxCell id="r2FiSrQX7Yn0EFOq5XZe-72" style="edgeStyle=orthogonalEdgeStyle;rounded=0;orthogonalLoop=1;jettySize=auto;html=1;" edge="1" parent="WIyWlLk6GJQsqaUBKTNV-1" source="r2FiSrQX7Yn0EFOq5XZe-41" target="r2FiSrQX7Yn0EFOq5XZe-68">
          <mxGeometry relative="1" as="geometry" />
        </mxCell>
        <mxCell id="r2FiSrQX7Yn0EFOq5XZe-41" value="shapes" style="rounded=0;whiteSpace=wrap;html=1;" vertex="1" parent="WIyWlLk6GJQsqaUBKTNV-1">
          <mxGeometry x="340" y="330" width="50" height="30" as="geometry" />
        </mxCell>
        <mxCell id="r2FiSrQX7Yn0EFOq5XZe-51" style="edgeStyle=orthogonalEdgeStyle;rounded=0;orthogonalLoop=1;jettySize=auto;html=1;entryX=0.5;entryY=0;entryDx=0;entryDy=0;" edge="1" parent="WIyWlLk6GJQsqaUBKTNV-1" source="r2FiSrQX7Yn0EFOq5XZe-42" target="r2FiSrQX7Yn0EFOq5XZe-47">
          <mxGeometry relative="1" as="geometry" />
        </mxCell>
        <mxCell id="r2FiSrQX7Yn0EFOq5XZe-42" value="Renderer" style="swimlane;fontStyle=0;childLayout=stackLayout;horizontal=1;startSize=30;horizontalStack=0;resizeParent=1;resizeParentMax=0;resizeLast=0;collapsible=1;marginBottom=0;whiteSpace=wrap;html=1;" vertex="1" parent="WIyWlLk6GJQsqaUBKTNV-1">
          <mxGeometry x="540" y="430" width="140" height="90" as="geometry" />
        </mxCell>
        <mxCell id="r2FiSrQX7Yn0EFOq5XZe-43" value="cv: Canvas" style="text;strokeColor=none;fillColor=none;align=left;verticalAlign=middle;spacingLeft=4;spacingRight=4;overflow=hidden;points=[[0,0.5],[1,0.5]];portConstraint=eastwest;rotatable=0;whiteSpace=wrap;html=1;" vertex="1" parent="r2FiSrQX7Yn0EFOq5XZe-42">
          <mxGeometry y="30" width="140" height="30" as="geometry" />
        </mxCell>
        <mxCell id="r2FiSrQX7Yn0EFOq5XZe-45" value="world: World" style="text;strokeColor=none;fillColor=none;align=left;verticalAlign=middle;spacingLeft=4;spacingRight=4;overflow=hidden;points=[[0,0.5],[1,0.5]];portConstraint=eastwest;rotatable=0;whiteSpace=wrap;html=1;" vertex="1" parent="r2FiSrQX7Yn0EFOq5XZe-42">
          <mxGeometry y="60" width="140" height="30" as="geometry" />
        </mxCell>
        <mxCell id="r2FiSrQX7Yn0EFOq5XZe-47" value="Canvas" style="swimlane;fontStyle=0;childLayout=stackLayout;horizontal=1;startSize=30;horizontalStack=0;resizeParent=1;resizeParentMax=0;resizeLast=0;collapsible=1;marginBottom=0;whiteSpace=wrap;html=1;" vertex="1" parent="WIyWlLk6GJQsqaUBKTNV-1">
          <mxGeometry x="680" y="600" width="140" height="210" as="geometry" />
        </mxCell>
        <mxCell id="r2FiSrQX7Yn0EFOq5XZe-49" value="width, height, grid" style="text;strokeColor=none;fillColor=none;align=left;verticalAlign=middle;spacingLeft=4;spacingRight=4;overflow=hidden;points=[[0,0.5],[1,0.5]];portConstraint=eastwest;rotatable=0;whiteSpace=wrap;html=1;" vertex="1" parent="r2FiSrQX7Yn0EFOq5XZe-47">
          <mxGeometry y="30" width="140" height="30" as="geometry" />
        </mxCell>
        <mxCell id="r2FiSrQX7Yn0EFOq5XZe-57" value="write, reset" style="text;strokeColor=none;fillColor=none;align=left;verticalAlign=middle;spacingLeft=4;spacingRight=4;overflow=hidden;points=[[0,0.5],[1,0.5]];portConstraint=eastwest;rotatable=0;whiteSpace=wrap;html=1;" vertex="1" parent="r2FiSrQX7Yn0EFOq5XZe-47">
          <mxGeometry y="60" width="140" height="30" as="geometry" />
        </mxCell>
        <mxCell id="r2FiSrQX7Yn0EFOq5XZe-56" value="cc: (x, y) =&amp;gt; idx" style="text;strokeColor=none;fillColor=none;align=left;verticalAlign=middle;spacingLeft=4;spacingRight=4;overflow=hidden;points=[[0,0.5],[1,0.5]];portConstraint=eastwest;rotatable=0;whiteSpace=wrap;html=1;" vertex="1" parent="r2FiSrQX7Yn0EFOq5XZe-47">
          <mxGeometry y="90" width="140" height="30" as="geometry" />
        </mxCell>
        <mxCell id="r2FiSrQX7Yn0EFOq5XZe-55" value="to_ppm&lt;div&gt;&lt;br&gt;&lt;/div&gt;" style="text;strokeColor=none;fillColor=none;align=left;verticalAlign=middle;spacingLeft=4;spacingRight=4;overflow=hidden;points=[[0,0.5],[1,0.5]];portConstraint=eastwest;rotatable=0;whiteSpace=wrap;html=1;" vertex="1" parent="r2FiSrQX7Yn0EFOq5XZe-47">
          <mxGeometry y="120" width="140" height="30" as="geometry" />
        </mxCell>
        <mxCell id="r2FiSrQX7Yn0EFOq5XZe-54" value="ppm_to_file" style="text;strokeColor=none;fillColor=none;align=left;verticalAlign=middle;spacingLeft=4;spacingRight=4;overflow=hidden;points=[[0,0.5],[1,0.5]];portConstraint=eastwest;rotatable=0;whiteSpace=wrap;html=1;" vertex="1" parent="r2FiSrQX7Yn0EFOq5XZe-47">
          <mxGeometry y="150" width="140" height="30" as="geometry" />
        </mxCell>
        <mxCell id="r2FiSrQX7Yn0EFOq5XZe-53" value="ops::Index(Mut)&amp;nbsp;" style="text;strokeColor=none;fillColor=none;align=left;verticalAlign=middle;spacingLeft=4;spacingRight=4;overflow=hidden;points=[[0,0.5],[1,0.5]];portConstraint=eastwest;rotatable=0;whiteSpace=wrap;html=1;" vertex="1" parent="r2FiSrQX7Yn0EFOq5XZe-47">
          <mxGeometry y="180" width="140" height="30" as="geometry" />
        </mxCell>
        <mxCell id="r2FiSrQX7Yn0EFOq5XZe-73" style="edgeStyle=orthogonalEdgeStyle;rounded=0;orthogonalLoop=1;jettySize=auto;html=1;entryX=0.5;entryY=0;entryDx=0;entryDy=0;" edge="1" parent="WIyWlLk6GJQsqaUBKTNV-1" source="r2FiSrQX7Yn0EFOq5XZe-58" target="r2FiSrQX7Yn0EFOq5XZe-68">
          <mxGeometry relative="1" as="geometry" />
        </mxCell>
        <mxCell id="r2FiSrQX7Yn0EFOq5XZe-85" style="edgeStyle=orthogonalEdgeStyle;rounded=0;orthogonalLoop=1;jettySize=auto;html=1;entryX=0.5;entryY=0;entryDx=0;entryDy=0;" edge="1" parent="WIyWlLk6GJQsqaUBKTNV-1" source="r2FiSrQX7Yn0EFOq5XZe-58" target="r2FiSrQX7Yn0EFOq5XZe-78">
          <mxGeometry relative="1" as="geometry" />
        </mxCell>
        <mxCell id="r2FiSrQX7Yn0EFOq5XZe-58" value="World" style="swimlane;fontStyle=0;childLayout=stackLayout;horizontal=1;startSize=30;horizontalStack=0;resizeParent=1;resizeParentMax=0;resizeLast=0;collapsible=1;marginBottom=0;whiteSpace=wrap;html=1;" vertex="1" parent="WIyWlLk6GJQsqaUBKTNV-1">
          <mxGeometry x="440" y="600" width="140" height="90" as="geometry" />
        </mxCell>
        <mxCell id="r2FiSrQX7Yn0EFOq5XZe-59" value="objects: Vec&amp;lt;Shape&amp;gt;" style="text;strokeColor=none;fillColor=none;align=left;verticalAlign=middle;spacingLeft=4;spacingRight=4;overflow=hidden;points=[[0,0.5],[1,0.5]];portConstraint=eastwest;rotatable=0;whiteSpace=wrap;html=1;" vertex="1" parent="r2FiSrQX7Yn0EFOq5XZe-58">
          <mxGeometry y="30" width="140" height="30" as="geometry" />
        </mxCell>
        <mxCell id="r2FiSrQX7Yn0EFOq5XZe-61" value="eye: Ray" style="text;strokeColor=none;fillColor=none;align=left;verticalAlign=middle;spacingLeft=4;spacingRight=4;overflow=hidden;points=[[0,0.5],[1,0.5]];portConstraint=eastwest;rotatable=0;whiteSpace=wrap;html=1;" vertex="1" parent="r2FiSrQX7Yn0EFOq5XZe-58">
          <mxGeometry y="60" width="140" height="30" as="geometry" />
        </mxCell>
        <mxCell id="r2FiSrQX7Yn0EFOq5XZe-67" style="edgeStyle=orthogonalEdgeStyle;rounded=0;orthogonalLoop=1;jettySize=auto;html=1;entryX=0.5;entryY=0;entryDx=0;entryDy=0;" edge="1" parent="WIyWlLk6GJQsqaUBKTNV-1" source="r2FiSrQX7Yn0EFOq5XZe-43" target="r2FiSrQX7Yn0EFOq5XZe-58">
          <mxGeometry relative="1" as="geometry" />
        </mxCell>
        <mxCell id="r2FiSrQX7Yn0EFOq5XZe-68" value="Shape" style="swimlane;fontStyle=0;childLayout=stackLayout;horizontal=1;startSize=30;horizontalStack=0;resizeParent=1;resizeParentMax=0;resizeLast=0;collapsible=1;marginBottom=0;whiteSpace=wrap;html=1;" vertex="1" parent="WIyWlLk6GJQsqaUBKTNV-1">
          <mxGeometry x="265" y="740" width="200" height="150" as="geometry" />
        </mxCell>
        <mxCell id="r2FiSrQX7Yn0EFOq5XZe-75" value="transform: Transformation&amp;nbsp;" style="text;strokeColor=none;fillColor=none;align=left;verticalAlign=middle;spacingLeft=4;spacingRight=4;overflow=hidden;points=[[0,0.5],[1,0.5]];portConstraint=eastwest;rotatable=0;whiteSpace=wrap;html=1;" vertex="1" parent="r2FiSrQX7Yn0EFOq5XZe-68">
          <mxGeometry y="30" width="200" height="30" as="geometry" />
        </mxCell>
        <mxCell id="r2FiSrQX7Yn0EFOq5XZe-69" value="impl Drawable, Transformable, Intersectable&amp;nbsp;" style="text;strokeColor=none;fillColor=none;align=left;verticalAlign=middle;spacingLeft=4;spacingRight=4;overflow=hidden;points=[[0,0.5],[1,0.5]];portConstraint=eastwest;rotatable=0;whiteSpace=wrap;html=1;" vertex="1" parent="r2FiSrQX7Yn0EFOq5XZe-68">
          <mxGeometry y="60" width="200" height="30" as="geometry" />
        </mxCell>
        <mxCell id="r2FiSrQX7Yn0EFOq5XZe-76" style="text;strokeColor=none;fillColor=none;align=left;verticalAlign=middle;spacingLeft=4;spacingRight=4;overflow=hidden;points=[[0,0.5],[1,0.5]];portConstraint=eastwest;rotatable=0;whiteSpace=wrap;html=1;" vertex="1" parent="r2FiSrQX7Yn0EFOq5XZe-68">
          <mxGeometry y="90" width="200" height="30" as="geometry" />
        </mxCell>
        <mxCell id="r2FiSrQX7Yn0EFOq5XZe-77" style="text;strokeColor=none;fillColor=none;align=left;verticalAlign=middle;spacingLeft=4;spacingRight=4;overflow=hidden;points=[[0,0.5],[1,0.5]];portConstraint=eastwest;rotatable=0;whiteSpace=wrap;html=1;" vertex="1" parent="r2FiSrQX7Yn0EFOq5XZe-68">
          <mxGeometry y="120" width="200" height="30" as="geometry" />
        </mxCell>
        <mxCell id="r2FiSrQX7Yn0EFOq5XZe-78" value="Ray" style="swimlane;fontStyle=0;childLayout=stackLayout;horizontal=1;startSize=30;horizontalStack=0;resizeParent=1;resizeParentMax=0;resizeLast=0;collapsible=1;marginBottom=0;whiteSpace=wrap;html=1;" vertex="1" parent="WIyWlLk6GJQsqaUBKTNV-1">
          <mxGeometry x="40" y="740" width="200" height="90" as="geometry" />
        </mxCell>
        <mxCell id="r2FiSrQX7Yn0EFOq5XZe-79" value="origin&lt;span style=&quot;white-space: pre;&quot;&gt;&#x9;&lt;/span&gt;" style="text;strokeColor=none;fillColor=none;align=left;verticalAlign=middle;spacingLeft=4;spacingRight=4;overflow=hidden;points=[[0,0.5],[1,0.5]];portConstraint=eastwest;rotatable=0;whiteSpace=wrap;html=1;" vertex="1" parent="r2FiSrQX7Yn0EFOq5XZe-78">
          <mxGeometry y="30" width="200" height="30" as="geometry" />
        </mxCell>
        <mxCell id="r2FiSrQX7Yn0EFOq5XZe-80" value="direction" style="text;strokeColor=none;fillColor=none;align=left;verticalAlign=middle;spacingLeft=4;spacingRight=4;overflow=hidden;points=[[0,0.5],[1,0.5]];portConstraint=eastwest;rotatable=0;whiteSpace=wrap;html=1;" vertex="1" parent="r2FiSrQX7Yn0EFOq5XZe-78">
          <mxGeometry y="60" width="200" height="30" as="geometry" />
        </mxCell>
        <mxCell id="r2FiSrQX7Yn0EFOq5XZe-84" style="edgeStyle=orthogonalEdgeStyle;rounded=0;orthogonalLoop=1;jettySize=auto;html=1;" edge="1" parent="WIyWlLk6GJQsqaUBKTNV-1" source="r2FiSrQX7Yn0EFOq5XZe-83" target="r2FiSrQX7Yn0EFOq5XZe-78">
          <mxGeometry relative="1" as="geometry" />
        </mxCell>
        <mxCell id="r2FiSrQX7Yn0EFOq5XZe-83" value="core" style="rounded=0;whiteSpace=wrap;html=1;" vertex="1" parent="WIyWlLk6GJQsqaUBKTNV-1">
          <mxGeometry x="115" y="330" width="50" height="30" as="geometry" />
        </mxCell>
      </root>
    </mxGraphModel>
  </diagram>
</mxfile>
